<?xml version="1.0" standalone="no"?><!DOCTYPE svg PUBLIC "-//W3C//DTD SVG 1.1//EN" "http://www.w3.org/Graphics/SVG/1.1/DTD/svg11.dtd"><svg t="1504857956286" class="icon" style="" viewBox="0 0 1024 1024" version="1.1" xmlns="http://www.w3.org/2000/svg" p-id="2907" xmlns:xlink="http://www.w3.org/1999/xlink" width="200" height="200"><defs><style type="text/css"></style></defs><path d="M787.911111 472.177778c-2.844444 36.977778-11.377778 24.177778-21.333333 24.177778-12.8 0-22.755556-5.688889-22.755556-18.488889 0-11.377778 4.266667-19.911111 4.266667-19.911111 1.422222-4.266667 11.377778-31.288889-7.111111-73.955556-34.133333-56.888889-102.4-58.311111-110.933334-54.044444-8.533333 2.844444-19.911111 5.688889-19.911111 5.688888a22.471111 22.471111 0 0 1-22.755555-22.755555c0-9.955556 7.111111-18.488889 15.644444-21.333333h1.422222c9.955556-1.422222 44.088889-14.222222 76.8-7.111112 62.577778 14.222222 143.644444 76.8 106.666667 187.733334zM625.777778 401.066667a15.758222 15.758222 0 0 1-15.644445-15.644445c0-8.533333 7.111111-15.644444 15.644445-15.644444 0 0 96.711111-17.066667 85.333333 85.333333v1.422222a15.473778 15.473778 0 0 1-15.644444 12.8 15.758222 15.758222 0 0 1-15.644445-15.644444c0 1.422222 15.644444-68.266667-54.044444-52.622222z m76.8 226.133333c-38.4 82.488889-164.977778 122.311111-260.266667 113.777778-89.6-7.111111-204.8-36.977778-216.177778-145.066667 0 0-5.688889-48.355556 41.244445-112.355555 0 0 68.266667-95.288889 147.911111-122.311112 79.644444-27.022222 89.6 18.488889 89.6 45.511112-4.266667 22.755556-12.8 36.977778 17.066667 27.022222 0 0 78.222222-36.977778 110.933333-4.266667 25.6 25.6 4.266667 62.577778 4.266667 62.577778s-11.377778 11.377778 11.377777 15.644444c22.755556 4.266667 93.866667 36.977778 54.044445 119.466667zM512 0C228.977778 0 0 228.977778 0 512s228.977778 512 512 512 512-228.977778 512-512-228.977778-512-512-512zM450.844444 587.377778a15.530667 15.530667 0 0 0-4.266666 18.488889c2.844444 5.688889 9.955556 5.688889 17.066666 1.422222 5.688889-4.266667 8.533333-12.8 5.688889-18.488889-4.266667-5.688889-11.377778-7.111111-18.488889-1.422222z m62.577778 58.311111c-28.444444 36.977778-85.333333 55.466667-140.8 25.6-25.6-14.222222-25.6-42.666667-25.6-42.666667S335.644444 540.444444 430.933333 529.066667c95.288889-9.955556 112.355556 79.644444 82.488889 116.622222z m-62.577778-156.444445c-93.866667 4.266667-169.244444 54.044444-169.244444 116.622223 0 62.577778 75.377778 109.511111 169.244444 105.244444 93.866667-4.266667 169.244444-62.577778 169.244445-125.155555S543.288889 484.977778 450.844444 489.244444z m-44.088888 109.511112c-17.066667 1.422222-29.866667 17.066667-29.866667 31.288888 0 14.222222 14.222222 24.177778 31.288889 22.755556 17.066667-1.422222 31.288889-15.644444 31.288889-29.866667s-12.8-25.6-32.711111-24.177777z" p-id="2908" fill="#ea493c"></path></svg>