<?xml version="1.0" standalone="no"?><!DOCTYPE svg PUBLIC "-//W3C//DTD SVG 1.1//EN" "http://www.w3.org/Graphics/SVG/1.1/DTD/svg11.dtd"><svg t="1504859173031" class="icon" style="" viewBox="0 0 1024 1024" version="1.1" xmlns="http://www.w3.org/2000/svg" p-id="2378" xmlns:xlink="http://www.w3.org/1999/xlink" width="200" height="200"><defs><style type="text/css"></style></defs><path d="M512 1024C229.2736 1024 0 794.7264 0 512S229.2736 0 512 0s512 229.2736 512 512-229.2736 512-512 512zM409.6 215.1424c-141.4144 0-256 96.8704-256 216.2688 0 102.1952 51.4048 151.9616 104.5504 179.6096-9.216 38.1952-22.528 54.272-32.9728 75.0592 36.0448-5.0176 72.704-29.5936 81.92-40.96 43.7248 12.6976 83.8656 16.896 120.0128 14.6432-8.9088-20.1728-7.3728-45.9776-7.3728-67.3792 0-113.3568 110.6944-210.1248 235.52-203.1616 1.9456 0.1024 3.7888 0.4096 5.4272 0.9216C637.952 290.4064 534.2208 215.1424 409.6 215.1424z m245.76 194.56c-118.784 0-215.04 85.4016-215.04 193.2288 0 107.52 107.6224 213.8112 296.96 175.3088 21.7088 18.6368 46.1824 27.2384 61.44 30.72-8.6016-16.4864-22.4256-52.224-20.48-61.44 41.984-19.1488 92.16-68.4032 92.16-154.8288 0-101.0688-96.256-182.9888-215.04-182.9888z m61.5424 173.8752c-16.9984 0-30.72-13.7216-30.72-30.72s13.7216-30.72 30.72-30.72 30.72 13.7216 30.72 30.72-13.7216 30.72-30.72 30.72z m-133.12 0c-16.9984 0-30.72-13.7216-30.72-30.72s13.7216-30.72 30.72-30.72 30.72 13.7216 30.72 30.72-13.7216 30.72-30.72 30.72z m-92.16-174.08c-22.6304 0-40.96-18.3296-40.96-40.96s18.3296-40.96 40.96-40.96 40.96 18.3296 40.96 40.96c0 22.528-18.3296 40.96-40.96 40.96z m-174.08 0c-22.6304 0-40.96-18.3296-40.96-40.96s18.3296-40.96 40.96-40.96 40.96 18.3296 40.96 40.96c0 22.528-18.3296 40.96-40.96 40.96z" fill="#24b727" p-id="2379"></path></svg>